HIERARCHY
ROOT Hips
{
	OFFSET 0.000000 88.474243 0.000000
	CHANNELS 6 Xposition Yposition Zposition Zrotation Yrotation Xrotation 
	JOINT Hips_Spine
	{
		OFFSET 0.000000 0.000000 0.000000
		CHANNELS 3 Zrotation Yrotation Xrotation
		JOINT Spine
		{
			OFFSET 0.005100 8.711998 -0.691000
			CHANNELS 3 Zrotation Yrotation Xrotation
			JOINT Spine1
			{
				OFFSET -0.009200 8.660301 -1.275000
				CHANNELS 3 Zrotation Yrotation Xrotation
				JOINT Spine2
				{
					OFFSET 0.006300 9.852501 -1.857000
					CHANNELS 3 Zrotation Yrotation Xrotation
					JOINT Spine2_Neck
					{
						OFFSET 0.000000 0.000000 0.000000
						CHANNELS 3 Zrotation Yrotation Xrotation
						JOINT Neck
						{
							OFFSET 0.016300 11.420799 -0.263300
							CHANNELS 3 Zrotation Yrotation Xrotation
							End Site #name: Head
							{
								OFFSET -0.019200 9.262405 2.362500
							}
						}
					}
					JOINT Spine2_LeftShoulder
					{
						OFFSET 0.000000 0.000000 0.000000
						CHANNELS 3 Zrotation Yrotation Xrotation
						JOINT LeftShoulder
						{
							OFFSET 5.616900 6.732201 -0.345700
							CHANNELS 3 Zrotation Yrotation Xrotation
							JOINT LeftArm
							{
								OFFSET 10.664888 -0.183372 -2.440700
								CHANNELS 3 Zrotation Yrotation Xrotation
								JOINT LeftForeArm
								{
									OFFSET 27.459126 0.000000 0.000000
									CHANNELS 3 Zrotation Yrotation Xrotation
									End Site #name: LeftHand
									{
										OFFSET 21.306858 0.000000 0.000000
									}
								}
							}
						}
					}
					JOINT Spine2_RightShoulder
					{
						OFFSET 0.000000 0.000000 0.000000
						CHANNELS 3 Zrotation Yrotation Xrotation
						JOINT RightShoulder
						{
							OFFSET -5.580300 6.737503 -0.344400
							CHANNELS 3 Zrotation Yrotation Xrotation
							JOINT RightArm
							{
								OFFSET -10.679335 -0.188484 -2.383900
								CHANNELS 3 Zrotation Yrotation Xrotation
								JOINT RightForeArm
								{
									OFFSET -27.503529 0.000000 0.000000
									CHANNELS 3 Zrotation Yrotation Xrotation
									End Site #name: RightHand
									{
										OFFSET -21.306808 0.000000 0.000000
									}
								}
							}
						}
					}
				}
			}
		}
	}
	JOINT Hips_LeftUpLeg
	{
		OFFSET 0.000000 0.000000 0.000000
		CHANNELS 3 Zrotation Yrotation Xrotation
		JOINT LeftUpLeg
		{
			OFFSET 6.857700 -6.739601 0.312100
			CHANNELS 3 Zrotation Yrotation Xrotation
			JOINT LeftLeg
			{
				OFFSET -0.367590 -34.731552 -4.572400
				CHANNELS 3 Zrotation Yrotation Xrotation
				End Site #name: LeftFoot
				{
					OFFSET 0.367590 -34.656704 -6.067400
				}
			}
		}
	}
	JOINT Hips_RightUpLeg
	{
		OFFSET 0.000000 0.000000 0.000000
		CHANNELS 3 Zrotation Yrotation Xrotation
		JOINT RightUpLeg
		{
			OFFSET -6.876100 -6.733299 0.301000
			CHANNELS 3 Zrotation Yrotation Xrotation
			JOINT RightLeg
			{
				OFFSET 0.347353 -34.795158 -4.515900
				CHANNELS 3 Zrotation Yrotation Xrotation
				End Site #name: RightFoot
				{
					OFFSET -0.347353 -34.589367 -6.070300
				}
			}
		}
	}
}
MOTION
Frames: 7
Frame Time: 0.041667
3.431360 0.121482 0.142480 -1.672623 -26.360556 1.093339 -0.000000 0.000000 0.000000 -1.681870 2.882066 1.180665 -0.626267 0.845633 0.772508 0.000000 0.000000 0.000000 -0.536963 0.974102 1.271340 0.442608 1.701097 -0.033789 -0.434822 1.028645 1.178741 -13.962057 -8.961820 2.807642 -51.981377 -10.659951 -0.076870 -0.210792 -26.231585 10.345687 -0.501072 0.923626 1.230582 9.767492 6.135847 2.797362 61.644997 1.087250 32.343111 -6.733971 29.323396 -11.524944 -0.000000 0.000000 -0.000000 5.748233 0.749737 -19.194293 2.400940 1.038081 18.490759 -0.000000 -0.000000 -0.000000 -4.985439 -14.130113 -16.671153 -0.735854 7.402697 18.307680 
3.428692 0.120012 0.119732 -1.633358 -26.185263 0.975480 -0.000000 0.000000 0.000000 -1.655375 2.901194 1.169440 -0.604005 0.866751 0.726824 0.000000 0.000000 0.000000 -0.522160 0.991815 1.241995 0.471355 1.705677 0.053968 -0.416413 1.048970 1.136269 -13.926610 -8.728252 2.728802 -51.618119 -11.711144 0.403494 -0.139360 -26.307286 10.708903 -0.486160 0.939942 1.191834 9.730575 6.076175 2.765502 61.599084 1.221288 32.899201 -6.709322 29.199734 -11.590156 -0.000000 0.000000 -0.000000 5.742432 0.637715 -19.092167 2.404400 1.104356 18.411751 -0.000000 -0.000000 -0.000000 -5.002501 -14.153236 -16.591924 -0.677183 7.526832 18.411729 
3.411100 0.118785 0.097895 -1.591437 -26.039807 0.851023 -0.000000 0.000000 0.000000 -1.631832 2.927809 1.164475 -0.583404 0.883949 0.682510 0.000000 0.000000 0.000000 -0.509102 1.004349 1.216105 0.501790 1.713144 0.142783 -0.402093 1.063401 1.095059 -13.885080 -8.441690 2.633258 -51.155094 -12.891732 0.997486 -0.057789 -26.375518 11.102002 -0.472770 0.952234 1.156657 9.689188 5.974223 2.721881 61.544382 1.319658 33.348194 -6.641295 29.082022 -11.548442 -0.000000 0.000000 -0.000000 5.741023 0.540575 -18.970057 2.398682 1.159968 18.313826 -0.000000 -0.000000 -0.000000 -5.015173 -14.179811 -16.513385 -0.611205 7.670925 18.520017 
3.376814 0.117439 0.076773 -1.547522 -25.933756 0.725135 -0.000000 0.000000 0.000000 -1.611608 2.950260 1.161232 -0.565820 0.898735 0.637421 0.000000 0.000000 0.000000 -0.498354 1.014214 1.192117 0.533806 1.731126 0.230467 -0.391458 1.073547 1.056697 -13.825112 -8.128678 2.530277 -50.561677 -14.354958 1.468927 0.020980 -26.441563 11.519964 -0.462655 0.960116 1.119494 9.623390 5.821211 2.675427 61.640274 1.625801 33.862651 -6.543927 29.006590 -11.481154 -0.000000 0.000000 -0.000000 5.743504 0.452916 -18.828958 2.382309 1.205880 18.196154 -0.000000 -0.000000 -0.000000 -5.025780 -14.214562 -16.428492 -0.570846 7.786809 18.604892 
3.324106 0.115953 0.056404 -1.501830 -25.872328 0.604393 -0.000000 0.000000 0.000000 -1.596597 2.974634 1.159187 -0.550445 0.913565 0.592528 0.000000 0.000000 0.000000 -0.489661 1.024127 1.167623 0.567147 1.758094 0.319344 -0.383653 1.083753 1.019187 -13.769286 -7.794775 2.423378 -49.850618 -15.836467 1.971619 0.092655 -26.556186 11.946385 -0.451987 0.969457 1.088341 9.518940 5.654539 2.626452 61.715624 1.841281 34.437746 -6.468127 29.029757 -11.467011 -0.000000 0.000000 -0.000000 5.751563 0.380991 -18.677910 2.359946 1.240831 18.069210 -0.000000 -0.000000 -0.000000 -5.031756 -14.248568 -16.354687 -0.554095 7.859521 18.679590 
3.255640 0.114439 0.036815 -1.446894 -25.861629 0.497702 -0.000000 0.000000 0.000000 -1.585428 3.005461 1.167859 -0.538242 0.930535 0.550157 0.000000 0.000000 0.000000 -0.483838 1.036690 1.144398 0.596956 1.791234 0.403016 -0.378412 1.096687 0.985924 -13.711091 -7.442797 2.312825 -49.035078 -17.315211 2.419540 0.168858 -26.621455 12.369223 -0.447634 0.977596 1.056832 9.341459 5.420937 2.577934 61.698732 2.059259 35.004830 -6.474483 29.240598 -11.531239 -0.000000 0.000000 -0.000000 5.759113 0.328941 -18.531370 2.331546 1.262071 17.938826 -0.000000 -0.000000 -0.000000 -5.038375 -14.285106 -16.301122 -0.549315 7.908544 18.745698 
3.173866 0.112860 0.018268 -1.381378 -25.885290 0.409710 -0.000000 0.000000 0.000000 -1.578598 3.042571 1.203725 -0.530340 0.950696 0.508652 0.000000 0.000000 0.000000 -0.481238 1.053216 1.124333 0.621894 1.828015 0.490666 -0.377370 1.113033 0.953460 -13.667578 -7.071581 2.202076 -48.153738 -18.720301 2.768173 0.246439 -26.695551 12.774385 -0.446493 0.989170 1.027224 9.140356 5.169100 2.527642 61.621080 2.193348 35.451338 -6.564968 29.514142 -11.617637 -0.000000 0.000000 -0.000000 5.764214 0.296134 -18.399212 2.299992 1.277041 17.807192 -0.000000 -0.000000 -0.000000 -5.042665 -14.316183 -16.269821 -0.543162 7.951260 18.797637 
